<?xml version="1.0" encoding="UTF-8" standalone="no"?>
<!-- Created with Inkscape (http://www.inkscape.org/) -->

<svg
   xmlns:dc="http://purl.org/dc/elements/1.1/"
   xmlns:cc="http://creativecommons.org/ns#"
   xmlns:rdf="http://www.w3.org/1999/02/22-rdf-syntax-ns#"
   xmlns:svg="http://www.w3.org/2000/svg"
   xmlns="http://www.w3.org/2000/svg"
   xmlns:sodipodi="http://sodipodi.sourceforge.net/DTD/sodipodi-0.dtd"
   xmlns:inkscape="http://www.inkscape.org/namespaces/inkscape"
   width="744.09448819"
   height="1052.3622047"
   id="svg2"
   version="1.1"
   inkscape:version="0.48.3.1 r9886"
   sodipodi:docname="hierarchy.svg">
  <defs
     id="defs4" />
  <sodipodi:namedview
     id="base"
     pagecolor="#ffffff"
     bordercolor="#666666"
     borderopacity="1.0"
     inkscape:pageopacity="0.0"
     inkscape:pageshadow="2"
     inkscape:zoom="5.6"
     inkscape:cx="413.03433"
     inkscape:cy="513.28625"
     inkscape:document-units="px"
     inkscape:current-layer="layer1"
     showgrid="false"
     inkscape:window-width="1855"
     inkscape:window-height="941"
     inkscape:window-x="65"
     inkscape:window-y="24"
     inkscape:window-maximized="1" />
  <metadata
     id="metadata7">
    <rdf:RDF>
      <cc:Work
         rdf:about="">
        <dc:format>image/svg+xml</dc:format>
        <dc:type
           rdf:resource="http://purl.org/dc/dcmitype/StillImage" />
        <dc:title></dc:title>
      </cc:Work>
    </rdf:RDF>
  </metadata>
  <g
     inkscape:label="Layer 1"
     inkscape:groupmode="layer"
     id="layer1">
    <g
       id="g3977"
       transform="matrix(0.80593607,0,0,0.88700565,101.69806,57.452143)"
       inkscape:export-filename="/home/karel/Documents/source/ontowiki/extensions/cubeviz/public/images/hierarchy.png"
       inkscape:export-xdpi="90"
       inkscape:export-ydpi="90">
      <path
         sodipodi:nodetypes="cccccccccc"
         inkscape:connector-curvature="0"
         id="path3968"
         d="m 378.6875,511.625 5.5,0 -0.125,0 0,-4.625 m 11.375,12.09375 0,-7.46875 -19.5,0 m 2.75,0 -5.53125,0 0,8"
         style="fill:none;stroke:#2d2d2d;stroke-width:1px;stroke-linecap:butt;stroke-linejoin:miter;stroke-opacity:1" />
      <path
         transform="matrix(1.5757576,0,0,1.5757576,-220.09633,-287.28537)"
         d="m 386.42858,501.91574 c 0,1.62727 -1.31917,2.94643 -2.94643,2.94643 -1.62727,0 -2.94643,-1.31916 -2.94643,-2.94643 0,-1.62727 1.31916,-2.94643 2.94643,-2.94643 1.62726,0 2.94643,1.31916 2.94643,2.94643 z"
         sodipodi:ry="2.9464285"
         sodipodi:rx="2.9464285"
         sodipodi:cy="501.91574"
         sodipodi:cx="383.48215"
         id="path3962"
         style="fill:#2d2d2d;fill-opacity:1;stroke:none"
         sodipodi:type="arc" />
      <path
         sodipodi:type="arc"
         style="fill:#2d2d2d;fill-opacity:1;stroke:none"
         id="path3964"
         sodipodi:cx="383.48215"
         sodipodi:cy="501.91574"
         sodipodi:rx="2.9464285"
         sodipodi:ry="2.9464285"
         d="m 386.42858,501.91574 c 0,1.62727 -1.31917,2.94643 -2.94643,2.94643 -1.62727,0 -2.94643,-1.31916 -2.94643,-2.94643 0,-1.62727 1.31916,-2.94643 2.94643,-2.94643 1.62726,0 2.94643,1.31916 2.94643,2.94643 z"
         transform="matrix(1.5757576,0,0,1.5757576,-231.09633,-271.28537)" />
      <path
         transform="matrix(1.5757576,0,0,1.5757576,-209.09633,-271.28537)"
         d="m 386.42858,501.91574 c 0,1.62727 -1.31917,2.94643 -2.94643,2.94643 -1.62727,0 -2.94643,-1.31916 -2.94643,-2.94643 0,-1.62727 1.31916,-2.94643 2.94643,-2.94643 1.62726,0 2.94643,1.31916 2.94643,2.94643 z"
         sodipodi:ry="2.9464285"
         sodipodi:rx="2.9464285"
         sodipodi:cy="501.91574"
         sodipodi:cx="383.48215"
         id="path3966"
         style="fill:#2d2d2d;fill-opacity:1;stroke:none"
         sodipodi:type="arc" />
    </g>
  </g>
</svg>
